<svg xmlns="http://www.w3.org/2000/svg" width="720" height="460" viewBox="0 0 720 460"><defs><linearGradient id="g" x1="0" x2="1" y1="0" y2="1"><stop stop-color="#eef2ff"/><stop offset="1" stop-color="#818cf8"/></linearGradient></defs><rect width="720" height="460" rx="36" fill="#f8fafc"/><rect x="34" y="34" width="652" height="392" rx="32" fill="url(#g)"/><circle cx="610" cy="92" r="120" fill="white" opacity=".16"/><circle cx="120" cy="390" r="130" fill="white" opacity=".12"/><rect x="82" y="90" width="556" height="72" rx="22" fill="white" opacity=".85"/><rect x="82" y="192" width="250" height="170" rx="26" fill="white" opacity=".72"/><rect x="360" y="192" width="278" height="170" rx="26" fill="white" opacity=".72"/><text x="112" y="136" font-family="Arial" font-size="25" font-weight="700" fill="#0f172a">TaskFlow Collaboration App</text><text x="112" y="246" font-family="Arial" font-size="20" font-weight="700" fill="#1e293b">Boards</text><text x="390" y="246" font-family="Arial" font-size="20" font-weight="700" fill="#1e293b">Comments</text><rect x="112" y="274" width="160" height="14" rx="7" fill="#2563eb" opacity=".45"/><rect x="112" y="304" width="190" height="14" rx="7" fill="#64748b" opacity=".22"/><rect x="390" y="274" width="190" height="14" rx="7" fill="#2563eb" opacity=".45"/><rect x="390" y="304" width="210" height="14" rx="7" fill="#64748b" opacity=".22"/></svg>
